<svg width="174" height="161" viewBox="0 0 174 161" fill="none" xmlns="http://www.w3.org/2000/svg">
<path d="M85.9029 160.485C133.346 160.485 171.806 158.239 171.806 155.469C171.806 152.7 133.346 150.454 85.9029 150.454C38.46 150.454 0 152.7 0 155.469C0 158.239 38.46 160.485 85.9029 160.485Z" fill="#F5F5F5"/>
<path d="M72.9082 79.6023C72.5034 79.5281 72.1387 79.3111 71.8803 78.9909L69.5986 76.2484C69.3801 75.9883 69.2409 75.6708 69.1977 75.3338C69.1545 74.9968 69.2091 74.6546 69.3549 74.3477L70.6132 71.6141C71.8433 68.9565 73.6309 66.5948 75.8545 64.6892L76.6121 64.0512C77.2061 63.5385 77.9795 63.2826 78.7622 63.3399C79.5448 63.3973 80.2726 63.7631 80.7856 64.3569C80.8076 64.3809 80.8283 64.4061 80.8477 64.4323L83.1692 67.2678C83.6091 67.8153 83.84 68.5014 83.8205 69.2035C83.801 69.9056 83.5325 70.5779 83.0629 71.1002L80.2274 74.3256C80.2274 74.3256 76.5988 80.2624 72.9082 79.6023Z" fill="#EBB376"/>
<path d="M97.9317 91.9676C96.5494 89.3536 94.3873 87.8428 91.4321 87.732C89.3454 87.6523 87.6042 88.5915 86.0535 89.9473C82.9522 92.672 79.7578 95.3259 76.1868 97.4525C75.1267 98.0878 74.0255 98.6517 72.8905 99.1405C72.6646 99.2336 72.4475 99.3665 72.2481 99.2867C71.4417 98.9589 71.9557 95.9594 72.1949 94.5993C72.5804 92.4195 73.6038 87.8162 76.7805 79.1723L68.7524 74.9102C65.6557 79.5114 63.2119 84.5197 61.4908 89.7922C59.5857 95.6537 59.3996 99.4197 59.8161 102.41C60.4098 106.655 62.1687 108.852 62.7137 109.499C64.5656 111.679 66.9891 112.822 69.767 113.234C72.4253 113.633 75.026 113.15 77.5691 112.388C82.6908 110.855 87.1478 108.108 91.3036 104.856C93.0024 103.516 94.6292 102.087 96.1772 100.576C97.4522 99.3984 98.2961 97.8277 98.5741 96.1145C98.5933 96.0176 98.6215 95.9227 98.6583 95.831V94.4265C98.5153 93.5807 98.2713 92.7552 97.9317 91.9676Z" fill="#FF5050"/>
<path opacity="0.2" d="M87.0282 91.79C85.4083 98.8558 82.719 105.633 79.0533 111.887C79.8065 111.612 80.8255 111.213 82.0129 110.673C84.0282 109.734 85.9647 108.635 87.8036 107.385C89.5064 106.266 91.1439 105.05 92.7081 103.744L87.0282 91.79Z" fill="black"/>
<path opacity="0.2" d="M74.0646 66.4038C74.239 67.6808 74.577 68.9302 75.0703 70.121C75.9876 72.3004 77.3944 74.2394 79.1818 75.7876C79.5185 75.3135 79.873 74.8306 80.2584 74.3432C81.0293 73.3508 81.8091 72.4514 82.5667 71.6406L77.0773 63.7012C76.3764 64.2166 75.7076 64.7744 75.0747 65.3715C74.707 65.7215 74.3836 66.0671 74.0646 66.4038Z" fill="black"/>
<path d="M151.629 141.629C145.87 127.27 142.263 117.31 138.147 90.7315C137.133 84.1965 131.059 79.9211 124.825 80.4749C123.053 80.6344 117.133 79.8989 106.85 82.3711C99.3406 84.1788 86.1466 90.0536 86.1466 90.0536C86.1466 90.0536 91.6626 117.385 107.927 141.629H151.629Z" fill="#FF5050"/>
<path opacity="0.7" d="M151.629 141.629C145.87 127.27 142.263 117.31 138.147 90.7315C137.133 84.1965 131.059 79.9211 124.825 80.4749C123.053 80.6344 117.133 79.8989 106.85 82.3711C99.3406 84.1788 86.1466 90.0536 86.1466 90.0536C86.1466 90.0536 91.6626 117.385 107.927 141.629H151.629Z" fill="white"/>
<path d="M123.048 118.475C124.705 122.484 127.31 127.416 129.937 132.041C131.958 135.585 133.991 138.97 135.617 141.611H152.613L146.1 126.033L145.152 123.774L143.942 117.527L138.488 89.4994C137.385 83.8284 131.949 79.3979 126.526 79.7523L119.171 80.2219L119.105 80.5409C118.587 83.0574 115.53 100.066 122.995 118.311L123.048 118.475Z" fill="#FF5050"/>
<path d="M101.738 134.504C103.625 138.62 104.901 141.283 104.901 141.283C104.901 141.283 104.901 141.398 104.848 141.611H111.4C111.369 139.201 111.193 136.795 110.873 134.407C110.246 129.672 109.272 124.99 107.958 120.398C107.515 118.789 107.01 117.23 106.496 115.768C102.212 103.575 100.067 85.9682 99.89 84.5106C99.89 84.4441 99.89 84.4131 99.89 84.4131C99.89 84.4131 86.5143 88.3075 86.1555 90.031C85.2029 94.6254 90.7233 109.144 96.0177 121.567C98.0868 126.45 100.134 130.995 101.738 134.504Z" fill="#FF5050"/>
<path d="M99.9963 82.5834C101.955 84.7145 102.726 86.3405 102.951 87.519C103.284 89.2469 102.451 90.0222 102.451 90.0222C103.488 94.2578 109.203 93.4027 109.203 93.4027C115.623 85.9949 115.033 80.9309 115.033 80.9309C110.944 80.8334 108.153 78.2327 106.354 75.5655C105.162 73.783 104.242 71.8329 103.625 69.7793L96.3589 79.2074C97.6511 80.2437 98.8667 81.372 99.9963 82.5834Z" fill="#EBB376"/>
<path opacity="0.2" d="M96.3721 79.2074C97.6597 80.2442 98.8708 81.3725 99.9962 82.5834C101.954 84.7145 102.725 86.3405 102.951 87.519C106.084 83.8107 106.651 79.327 106.354 75.5567C105.163 73.7769 104.243 71.8298 103.625 69.7793L96.3721 79.2074Z" fill="black"/>
<path d="M98.6184 45.013C98.6184 43.9984 98.7868 41.0831 100.913 38.7482C103.665 35.7266 108.379 35.1462 111.573 36.533C115.623 38.2742 114.714 42.0711 120.093 50.2675C124.324 56.7006 126.269 56.4702 127.682 60.9805C128.072 62.221 130.412 69.7263 125.946 74.6397C123.505 77.3246 120.164 77.9493 118.653 78.1309C119.389 76.8018 120.173 74.8523 119.739 72.7523C119.194 70.1206 117.049 68.8047 115.463 67.4357C108.224 61.2064 111.476 52.9613 104.263 47.5959C102.578 46.3574 100.657 45.4782 98.6184 45.013Z" fill="#263238"/>
<path d="M78.6191 70.7411C77.99 69.855 72.9924 62.527 75.7526 54.4192C77.6444 48.8456 82.1723 45.9259 83.9578 44.7784C85.7433 43.6309 89.1415 41.4024 93.2973 41.4289C103.851 41.4954 111.87 54.3394 111.405 62.0795C111.152 66.3416 110.098 71.6139 106.31 74.5425C104.79 75.7166 104.201 71.1531 104.201 71.1531C104.201 71.1531 89.4827 78.0381 78.6191 70.7411Z" fill="#263238"/>
<path d="M103.479 54.4946C106.421 64.2993 107.865 68.3754 104.981 75.2958C100.643 85.7075 88.3441 87.7411 82.6288 79.1548C77.485 71.4236 73.5462 56.6877 81.2287 48.9831C88.796 41.3848 100.524 44.6944 103.479 54.4946Z" fill="#EBB376"/>
<path d="M92.2783 55.0432C99.9608 59.0617 93.3283 70.7715 103.053 65.8093C112.778 60.8472 102.336 48.6943 94.9898 48.2114C87.644 47.7285 92.2783 55.0432 92.2783 55.0432Z" fill="#263238"/>
<path d="M90.0232 63.12C90.3289 63.9219 90.1738 64.7593 89.6776 64.9896C89.1814 65.22 88.5345 64.7548 88.2288 63.9485C87.9231 63.1421 88.0738 62.3092 88.57 62.0788C89.0662 61.8484 89.7175 62.3225 90.0232 63.12Z" fill="#263238"/>
<path d="M80.7458 67.5772C81.056 68.3835 80.9009 69.2209 80.4047 69.4468C79.9085 69.6728 79.2572 69.212 78.9515 68.4101C78.6458 67.6082 78.8008 66.7708 79.297 66.5404C79.7933 66.31 80.4401 66.7752 80.7458 67.5772Z" fill="#263238"/>
<path d="M79.5319 66.4834L77.485 66.7537C77.485 66.7537 79.0091 67.8436 79.5319 66.4834Z" fill="#263238"/>
<path d="M83.7895 67.6836C83.7895 67.6836 83.7009 71.7375 82.8502 74.0369C84.2148 74.604 85.7788 73.4122 85.7788 73.4122L83.7895 67.6836Z" fill="#D58745"/>
<path d="M92.4998 73.6919C92.9501 73.5443 93.4127 73.4376 93.8822 73.3729C93.9139 73.3679 93.9464 73.3697 93.9774 73.3782C94.0084 73.3867 94.0373 73.4017 94.062 73.4222C94.0868 73.4428 94.1069 73.4684 94.1209 73.4973C94.135 73.5263 94.1427 73.5579 94.1436 73.59C94.1479 73.6574 94.1272 73.724 94.0855 73.7771C94.0439 73.8303 93.9841 73.8662 93.9176 73.878C92.8576 74.0214 91.8435 74.4017 90.9507 74.9908C90.0579 75.5798 89.3093 76.3625 88.7605 77.2806C88.7325 77.3408 88.682 77.3876 88.6198 77.4108C88.5576 77.434 88.4888 77.4318 88.4282 77.4047C88.3707 77.3729 88.3281 77.3196 88.3098 77.2565C88.2916 77.1934 88.2991 77.1255 88.3307 77.068C89.2561 75.4666 90.7411 74.2641 92.4998 73.6919Z" fill="#263238"/>
<path d="M108.8 62.6645C108.842 63.642 108.679 64.6176 108.322 65.5285C107.965 66.4395 107.421 67.2658 106.726 67.9545C104.932 69.5805 102.796 67.6665 102.26 64.924C101.777 62.4607 102.127 58.646 104.427 58.1143C106.726 57.5827 108.764 60.0283 108.8 62.6645Z" fill="#EBB376"/>
<path d="M75.8323 64.3164C75.8614 64.2577 75.9031 64.2063 75.9544 64.1657C76.0057 64.1251 76.0654 64.0963 76.1292 64.0816C76.7239 63.9557 77.2781 63.6842 77.7421 63.2914C78.2061 62.8986 78.5653 62.3967 78.7875 61.8309C78.8032 61.768 78.8325 61.7093 78.8733 61.659C78.9142 61.6087 78.9655 61.5679 79.0238 61.5396C79.0821 61.5113 79.1459 61.4961 79.2107 61.4952C79.2755 61.4942 79.3398 61.5075 79.3989 61.534C79.523 61.5863 79.6234 61.6827 79.6807 61.8046C79.7379 61.9265 79.748 62.0653 79.709 62.1942C79.4408 62.9167 78.995 63.56 78.4128 64.0648C77.8305 64.5697 77.1305 64.9198 76.3773 65.0828C76.2467 65.1055 76.1123 65.0772 76.0019 65.0039C75.8915 64.9306 75.8134 64.8177 75.7836 64.6885C75.7541 64.5627 75.7714 64.4304 75.8323 64.3164Z" fill="#263238"/>
<path d="M89.5225 58.4459C89.6397 58.4885 89.7363 58.574 89.7928 58.6852C89.8183 58.7454 89.8316 58.81 89.832 58.8754C89.8324 58.9407 89.8199 59.0055 89.7952 59.066C89.7705 59.1266 89.7341 59.1816 89.6881 59.228C89.642 59.2744 89.5873 59.3113 89.527 59.3364C88.8057 59.7018 88.0097 59.8956 87.2012 59.9025C86.3927 59.9094 85.5935 59.7293 84.8661 59.3763C84.8092 59.3463 84.7594 59.3043 84.7204 59.2531C84.6813 59.202 84.6539 59.143 84.64 59.0801C84.6261 59.0173 84.626 58.9522 84.6398 58.8893C84.6536 58.8265 84.6809 58.7674 84.7199 58.7162C84.7958 58.6049 84.9099 58.5253 85.0406 58.4926C85.1713 58.46 85.3094 58.4764 85.4288 58.539C86.0083 58.8103 86.6425 58.945 87.2823 58.9327C87.9221 58.9204 88.5506 58.7614 89.1194 58.4681C89.2468 58.4127 89.3898 58.4048 89.5225 58.4459Z" fill="#263238"/>
<path d="M88.8048 62.0264L86.7889 62.3232C86.7889 62.3232 88.282 63.3865 88.8048 62.0264Z" fill="#263238"/>
<path d="M84.2946 52.2307C89.8548 57.6314 95.7917 59.8555 98.8487 59.5454C100.29 59.411 101.702 59.0553 103.036 58.491C104.25 57.915 106.031 56.7808 106.031 56.7808C105.697 55.0759 105.077 53.44 104.196 51.9427C102.279 48.8118 99.3685 46.4129 95.929 45.1286C94.5556 44.6058 90.289 43.2235 85.9737 44.5925C79.8153 46.5419 75.3804 53.5155 75.212 61.9202C75.5869 61.6199 75.9789 61.3418 76.3861 61.0872C77.5645 60.3493 78.8562 59.8105 80.2096 59.4922C80.3191 58.5289 80.5606 57.5852 80.9274 56.6877C81.6492 54.938 82.8087 53.4032 84.2946 52.2307Z" fill="#263238"/>
<path d="M97.0234 60.0276C96.9915 60.2424 96.8854 60.4393 96.7236 60.5842C96.5618 60.729 96.3544 60.8127 96.1373 60.8207C95.8171 60.838 95.4977 60.7735 95.2094 60.6332C94.921 60.4929 94.6731 60.2814 94.4892 60.0187C94.3847 59.8715 94.326 59.6966 94.3205 59.5161C94.315 59.3356 94.3629 59.1575 94.4582 59.0041L94.8658 58.344L94.9056 58.282C95.8272 57.003 96.474 56.4359 96.8462 56.5807C97.2804 56.749 97.3424 57.8921 97.0234 60.0276Z" fill="#FF5050"/>
<path opacity="0.7" d="M96.7309 59.7223C96.7074 59.8808 96.6297 60.0262 96.5109 60.1337C96.3921 60.2412 96.2396 60.304 96.0796 60.3116C95.839 60.3235 95.5994 60.2731 95.384 60.1653C95.1769 60.0633 94.9987 59.9109 94.8657 59.7223C94.7888 59.6135 94.7457 59.4844 94.7418 59.3512C94.7378 59.2181 94.7732 59.0867 94.8435 58.9735L95.1403 58.4862C95.1521 58.4725 95.1625 58.4576 95.1714 58.4419C95.8478 57.4997 96.3248 57.0817 96.6024 57.188C96.9258 57.3077 96.979 58.1539 96.7309 59.7223Z" fill="white"/>
<path opacity="0.2" d="M96.3101 71.1443C95.5156 67.7476 95.5292 64.2118 96.35 60.8212C96.5626 61.8979 96.7709 62.9745 96.9835 64.0511L106.425 66.2663C107.081 64.4144 107.735 62.561 108.388 60.7061C108.495 60.9946 108.581 61.2908 108.645 61.5922C108.676 61.7339 109.331 64.9327 107.284 67.3917C107.059 67.6422 106.813 67.8734 106.549 68.0828C106.549 68.3605 106.536 68.644 106.509 68.9335C106.451 69.8727 106.354 70.7677 106.226 71.5918L96.3101 71.1443Z" fill="black"/>
<path d="M98.5033 71.0948C98.853 71.3675 99.2873 71.5086 99.7305 71.4936L103.585 71.3872C103.951 71.3804 104.308 71.2681 104.612 71.0638C104.916 70.8595 105.155 70.5718 105.3 70.2353L106.629 67.2624C107.905 64.3693 108.542 61.2353 108.498 58.0736V57.0014C108.491 56.1538 108.148 55.3436 107.544 54.7488C106.94 54.154 106.125 53.8233 105.277 53.8292H105.171L101.219 53.9665C100.461 53.998 99.7387 54.2984 99.1818 54.8139C98.6249 55.3294 98.2697 56.0264 98.1798 56.7799L97.5773 61.3832C97.5773 61.3832 95.3089 68.5739 98.5033 71.0948Z" fill="#EBB376"/>
<path opacity="0.2" d="M132.702 81.627C133.177 81.8707 133.623 82.168 134.031 82.5131C137 84.9941 136.867 89.1588 136.858 89.4158C136.69 93.0621 133.854 95.4368 131.457 97.4438C127.829 100.416 123.456 102.336 118.812 102.995C123.441 95.868 128.071 88.7453 132.702 81.627Z" fill="black"/>
<path opacity="0.2" d="M103.341 104.855C101.38 104.476 99.5488 103.599 98.0246 102.308C95.579 100.199 94.7904 97.6026 94.1214 95.4095C93.2584 92.5262 93.0108 89.4937 93.3948 86.5086L96.3942 85.5029L103.341 104.855Z" fill="black"/>
<path d="M132.839 81.7333C130.624 79.9611 128.019 80.1694 127.08 80.2491C123.243 80.5592 120.332 83.1201 117.395 85.7296C115.955 87.01 114.422 88.193 113.009 89.5088C111.7 90.6581 110.145 91.4904 108.463 91.9412C108.366 91.9592 108.267 91.9592 108.17 91.9412C108.097 91.931 108.026 91.907 107.962 91.8703C107.883 91.8285 107.812 91.7707 107.756 91.7006C107.699 91.6305 107.658 91.5495 107.634 91.4627C107.311 90.324 107.032 89.1588 106.81 87.9936C106.101 84.2764 106.093 81.2725 106.079 77.8035C106.079 75.4154 106.146 72.9831 106.305 70.5773V70.3647L96.6113 69.4121L96.5714 69.6071C95.4159 75.448 94.7593 81.3767 94.6087 87.329C94.5511 90.2443 94.6087 93.6779 96.2258 97.5192C96.7516 98.981 97.5315 100.338 98.5297 101.529C99.7213 102.85 101.182 103.902 102.813 104.613C104.445 105.323 106.209 105.677 107.989 105.649C108.623 105.65 109.257 105.607 109.885 105.521C116.008 104.736 121.289 101.892 123.221 100.784C129.743 97.0495 132.618 93.3988 133.486 92.2336C134.669 90.6475 135.471 89.181 135.498 87.3601C135.524 83.9663 132.946 81.8175 132.839 81.7333Z" fill="#FF5050"/>
<path d="M156.007 18.5806C156.007 16.29 154.815 14.2254 152.905 12.7367C152.969 12.4367 153.002 12.1308 153.003 11.824C153.003 8.77144 149.902 6.29479 146.052 6.2239C144.886 3.27762 141.391 1.1377 137.261 1.1377C133.97 1.1377 131.081 2.49786 129.455 4.54474C129.042 4.4858 128.626 4.4562 128.21 4.45614C124.28 4.45614 121.09 6.9638 121.09 10.0563C121.091 10.5823 121.184 11.1041 121.365 11.5981C118.862 12.9272 117.209 15.1425 117.209 17.7033C117.209 20.1534 118.742 22.3243 121.095 23.6579C121.092 23.6844 121.092 23.7111 121.095 23.7377C121.095 26.7371 124.098 29.1872 127.869 29.3289C129.951 31.3625 133.137 32.6607 136.73 32.6607C139.078 32.6797 141.39 32.0856 143.438 30.9372C143.752 30.9682 144.076 30.9904 144.403 30.9904C148.338 30.9904 151.523 28.4827 151.523 25.3902V25.3326C154.217 23.8573 156.007 21.3806 156.007 18.5806Z" fill="#FF5050"/>
<path d="M108.906 25.572C108.906 26.2498 108.122 26.7992 107.134 26.7992C106.146 26.7992 105.362 26.2498 105.362 25.572C105.362 24.8941 106.146 24.3447 107.134 24.3447C108.122 24.3447 108.906 24.8941 108.906 25.572Z" fill="#FF5050"/>
<path d="M114.91 21.0884C114.91 22.1207 113.709 22.9581 112.225 22.9581C110.74 22.9581 109.54 22.1207 109.54 21.0884C109.54 20.0561 110.745 19.2188 112.225 19.2188C113.704 19.2188 114.91 20.0561 114.91 21.0884Z" fill="#FF5050"/>
<path opacity="0.6" d="M156.007 18.5806C156.007 16.29 154.815 14.2254 152.905 12.7367C152.969 12.4367 153.002 12.1308 153.003 11.824C153.003 8.77144 149.902 6.29479 146.052 6.2239C144.886 3.27762 141.391 1.1377 137.261 1.1377C133.97 1.1377 131.081 2.49786 129.455 4.54474C129.042 4.4858 128.626 4.4562 128.21 4.45614C124.28 4.45614 121.09 6.9638 121.09 10.0563C121.091 10.5823 121.184 11.1041 121.365 11.5981C118.862 12.9272 117.209 15.1425 117.209 17.7033C117.209 20.1534 118.742 22.3243 121.095 23.6579C121.092 23.6844 121.092 23.7111 121.095 23.7377C121.095 26.7371 124.098 29.1872 127.869 29.3289C129.951 31.3625 133.137 32.6607 136.73 32.6607C139.078 32.6797 141.39 32.0856 143.438 30.9372C143.752 30.9682 144.076 30.9904 144.403 30.9904C148.338 30.9904 151.523 28.4827 151.523 25.3902V25.3326C154.217 23.8573 156.007 21.3806 156.007 18.5806Z" fill="white"/>
<path opacity="0.6" d="M108.906 25.572C108.906 26.2498 108.122 26.7992 107.134 26.7992C106.146 26.7992 105.362 26.2498 105.362 25.572C105.362 24.8941 106.146 24.3447 107.134 24.3447C108.122 24.3447 108.906 24.8941 108.906 25.572Z" fill="white"/>
<path opacity="0.6" d="M114.91 21.0884C114.91 22.1207 113.709 22.9581 112.225 22.9581C110.74 22.9581 109.54 22.1207 109.54 21.0884C109.54 20.0561 110.745 19.2188 112.225 19.2188C113.704 19.2188 114.91 20.0561 114.91 21.0884Z" fill="white"/>
<path d="M131.861 10.8711H124.639V14.3357H131.861V10.8711Z" fill="#FF5050"/>
<path opacity="0.8" d="M131.861 10.8711H124.639V14.3357H131.861V10.8711Z" fill="white"/>
<path d="M139.946 10.8711H132.725V14.3357H139.946V10.8711Z" fill="#FF5050"/>
<path opacity="0.8" d="M139.946 10.8711H132.725V14.3357H139.946V10.8711Z" fill="white"/>
<path d="M148.036 10.8711H140.815V14.3357H148.036V10.8711Z" fill="#FF5050"/>
<path opacity="0.8" d="M148.036 10.8711H140.815V14.3357H148.036V10.8711Z" fill="white"/>
<path d="M128.068 15.0098H120.846V18.4744H128.068V15.0098Z" fill="#FF5050"/>
<path opacity="0.8" d="M128.068 15.0098H120.846V18.4744H128.068V15.0098Z" fill="white"/>
<path d="M136.149 15.0098H128.928V18.4744H136.149V15.0098Z" fill="#FF5050"/>
<path opacity="0.8" d="M136.149 15.0098H128.928V18.4744H136.149V15.0098Z" fill="white"/>
<path d="M144.244 15.0098H137.022V18.4744H144.244V15.0098Z" fill="#FF5050"/>
<path opacity="0.8" d="M144.244 15.0098H137.022V18.4744H144.244V15.0098Z" fill="white"/>
<path d="M152.369 15.0098H145.148V18.4744H152.369V15.0098Z" fill="#FF5050"/>
<path opacity="0.8" d="M152.369 15.0098H145.148V18.4744H152.369V15.0098Z" fill="white"/>
<path d="M131.861 19.3555H124.639V22.8201H131.861V19.3555Z" fill="#FF5050"/>
<path opacity="0.8" d="M131.861 19.3555H124.639V22.8201H131.861V19.3555Z" fill="white"/>
<path d="M139.946 19.3555H132.725V22.8201H139.946V19.3555Z" fill="#FF5050"/>
<path opacity="0.8" d="M139.946 19.3555H132.725V22.8201H139.946V19.3555Z" fill="white"/>
<path d="M148.036 19.3555H140.815V22.8201H148.036V19.3555Z" fill="#FF5050"/>
<path opacity="0.8" d="M148.036 19.3555H140.815V22.8201H148.036V19.3555Z" fill="white"/>
<path d="M135.715 6.7334H128.493V10.198H135.715V6.7334Z" fill="#FF5050"/>
<path opacity="0.8" d="M135.715 6.7334H128.493V10.198H135.715V6.7334Z" fill="white"/>
<path d="M143.81 6.7334H136.588V10.198H143.81V6.7334Z" fill="#FF5050"/>
<path opacity="0.8" d="M143.81 6.7334H136.588V10.198H143.81V6.7334Z" fill="white"/>
<path d="M136.149 23.4941H128.928V26.9588H136.149V23.4941Z" fill="#FF5050"/>
<path opacity="0.8" d="M136.149 23.4941H128.928V26.9588H136.149V23.4941Z" fill="white"/>
<path d="M144.244 23.4941H137.022V26.9588H144.244V23.4941Z" fill="#FF5050"/>
<path opacity="0.8" d="M144.244 23.4941H137.022V26.9588H144.244V23.4941Z" fill="white"/>
<path d="M138.821 13.6756C138.786 12.2711 137.58 11.3363 135.689 11.3673C133.872 11.3939 132.565 12.1116 131.741 13.3521L129.322 11.8147C130.651 9.89191 132.822 8.7134 135.892 8.66023C139.499 8.6115 141.953 10.2552 142.033 13.1306C142.148 17.2155 137.961 17.6497 138.046 20.6049L134.944 20.6492C134.811 16.9408 138.892 16.1788 138.821 13.6756ZM134.639 24.6853C134.627 24.4288 134.668 24.1727 134.76 23.9328C134.851 23.6929 134.991 23.4744 135.171 23.2908C135.35 23.1071 135.565 22.9624 135.803 22.8654C136.041 22.7684 136.296 22.7213 136.553 22.7271C136.809 22.7176 137.065 22.7596 137.305 22.8506C137.545 22.9416 137.765 23.0797 137.95 23.2568C138.136 23.434 138.285 23.6466 138.387 23.882C138.489 24.1175 138.544 24.371 138.546 24.6277C138.559 24.8833 138.519 25.1388 138.43 25.3786C138.341 25.6185 138.204 25.8377 138.028 26.0229C137.851 26.2081 137.639 26.3555 137.403 26.4561C137.168 26.5568 136.915 26.6085 136.659 26.6082C136.399 26.6176 136.14 26.5751 135.897 26.4831C135.654 26.391 135.432 26.2513 135.244 26.0721C135.056 25.893 134.905 25.678 134.801 25.4399C134.697 25.2017 134.642 24.9452 134.639 24.6853Z" fill="#FF5050"/>
<path d="M166.015 145.01H6.44189V155.324H166.015V145.01Z" fill="#263238"/>
<path opacity="0.3" d="M166.015 145.01H6.44189V155.324H166.015V145.01Z" fill="white"/>
<path d="M166.609 141.571H5.84379C4.93599 141.571 4.20007 142.307 4.20007 143.215V146.804C4.20007 147.712 4.93599 148.447 5.84379 148.447H166.609C167.517 148.447 168.252 147.712 168.252 146.804V143.215C168.252 142.307 167.517 141.571 166.609 141.571Z" fill="#263238"/>
<path opacity="0.4" d="M166.609 141.571H5.84379C4.93599 141.571 4.20007 142.307 4.20007 143.215V146.804C4.20007 147.712 4.93599 148.447 5.84379 148.447H166.609C167.517 148.447 168.252 147.712 168.252 146.804V143.215C168.252 142.307 167.517 141.571 166.609 141.571Z" fill="white"/>
<path d="M45.9707 134.004H14.5984V140.654H45.9707V134.004Z" fill="#263238"/>
<path opacity="0.8" d="M45.9707 134.004H14.5984V140.654H45.9707V134.004Z" fill="white"/>
<path opacity="0.5" d="M45.5277 135.311H14.5984V135.612H45.5277V135.311Z" fill="white"/>
<path opacity="0.5" d="M45.5277 137.025H14.5984V137.327H45.5277V137.025Z" fill="white"/>
<path opacity="0.5" d="M45.5277 138.819H14.5984V139.121H45.5277V138.819Z" fill="white"/>
<path d="M45.705 133.086H13.8719C13.836 133.085 13.8004 133.092 13.7671 133.105C13.7338 133.119 13.7035 133.138 13.6779 133.164C13.6523 133.189 13.632 133.219 13.6182 133.252C13.6043 133.285 13.5972 133.32 13.5972 133.356V134.194C13.5972 134.266 13.6261 134.336 13.6776 134.388C13.7291 134.439 13.799 134.468 13.8719 134.468H44.3049C44.3765 134.468 44.4474 134.482 44.5135 134.51C44.5796 134.537 44.6397 134.577 44.6903 134.628C44.7409 134.679 44.781 134.739 44.8084 134.805C44.8358 134.871 44.8499 134.942 44.8499 135.013V139.736C44.8499 139.881 44.7925 140.019 44.6903 140.121C44.5881 140.224 44.4495 140.281 44.3049 140.281H13.8364C13.805 140.281 13.7739 140.287 13.7449 140.299C13.7158 140.311 13.6895 140.329 13.6672 140.351C13.645 140.373 13.6274 140.4 13.6154 140.429C13.6034 140.458 13.5972 140.489 13.5972 140.52V141.331C13.5972 141.363 13.6034 141.394 13.6154 141.423C13.6274 141.452 13.645 141.478 13.6672 141.5C13.6895 141.523 13.7158 141.54 13.7449 141.552C13.7739 141.564 13.805 141.57 13.8364 141.57H45.736C45.971 141.57 46.1964 141.477 46.3626 141.311C46.5287 141.145 46.6221 140.919 46.6221 140.684V134.039C46.625 133.916 46.6036 133.793 46.559 133.679C46.5144 133.564 46.4475 133.46 46.3622 133.371C46.2769 133.282 46.1749 133.212 46.0621 133.163C45.9493 133.114 45.8279 133.088 45.705 133.086Z" fill="#FF5050"/>
<path d="M45.9707 125.492H14.5984V132.142H45.9707V125.492Z" fill="#263238"/>
<path opacity="0.9" d="M45.9707 125.492H14.5984V132.142H45.9707V125.492Z" fill="white"/>
<path opacity="0.7" d="M45.5277 126.524H14.5984V126.826H45.5277V126.524Z" fill="white"/>
<path opacity="0.7" d="M45.5277 127.752H14.5984V128.053H45.5277V127.752Z" fill="white"/>
<path opacity="0.7" d="M45.5277 129.107H14.5984V129.409H45.5277V129.107Z" fill="white"/>
<path opacity="0.7" d="M45.5277 130.335H14.5984V130.636H45.5277V130.335Z" fill="white"/>
<path d="M45.705 124.575H13.8719C13.799 124.575 13.7291 124.604 13.6776 124.656C13.6261 124.707 13.5972 124.777 13.5972 124.85V125.678C13.5972 125.714 13.6043 125.75 13.6182 125.783C13.632 125.816 13.6523 125.846 13.6779 125.871C13.7035 125.896 13.7338 125.916 13.7671 125.929C13.8004 125.943 13.836 125.949 13.8719 125.949H44.3049C44.4495 125.949 44.5881 126.006 44.6903 126.108C44.7925 126.21 44.8499 126.349 44.8499 126.494V131.221C44.8499 131.365 44.7925 131.504 44.6903 131.606C44.5881 131.708 44.4495 131.766 44.3049 131.766H13.8364C13.805 131.766 13.7739 131.772 13.7449 131.784C13.7158 131.796 13.6895 131.814 13.6672 131.836C13.645 131.858 13.6274 131.885 13.6154 131.914C13.6034 131.943 13.5972 131.974 13.5972 132.005V132.811C13.5972 132.843 13.6034 132.874 13.6154 132.903C13.6274 132.932 13.645 132.958 13.6672 132.981C13.6895 133.003 13.7158 133.021 13.7449 133.033C13.7739 133.045 13.805 133.051 13.8364 133.051H45.736C45.971 133.051 46.1964 132.957 46.3626 132.791C46.5287 132.625 46.6221 132.4 46.6221 132.165V125.519C46.6245 125.272 46.5294 125.035 46.3577 124.858C46.1859 124.682 45.9514 124.58 45.705 124.575Z" fill="#FF5050"/>
<path opacity="0.3" d="M45.705 124.575H13.8719C13.799 124.575 13.7291 124.604 13.6776 124.656C13.6261 124.707 13.5972 124.777 13.5972 124.85V125.678C13.5972 125.714 13.6043 125.75 13.6182 125.783C13.632 125.816 13.6523 125.846 13.6779 125.871C13.7035 125.896 13.7338 125.916 13.7671 125.929C13.8004 125.943 13.836 125.949 13.8719 125.949H44.3049C44.4495 125.949 44.5881 126.006 44.6903 126.108C44.7925 126.21 44.8499 126.349 44.8499 126.494V131.221C44.8499 131.365 44.7925 131.504 44.6903 131.606C44.5881 131.708 44.4495 131.766 44.3049 131.766H13.8364C13.805 131.766 13.7739 131.772 13.7449 131.784C13.7158 131.796 13.6895 131.814 13.6672 131.836C13.645 131.858 13.6274 131.885 13.6154 131.914C13.6034 131.943 13.5972 131.974 13.5972 132.005V132.811C13.5972 132.843 13.6034 132.874 13.6154 132.903C13.6274 132.932 13.645 132.958 13.6672 132.981C13.6895 133.003 13.7158 133.021 13.7449 133.033C13.7739 133.045 13.805 133.051 13.8364 133.051H45.736C45.971 133.051 46.1964 132.957 46.3626 132.791C46.5287 132.625 46.6221 132.4 46.6221 132.165V125.519C46.6245 125.272 46.5294 125.035 46.3577 124.858C46.1859 124.682 45.9514 124.58 45.705 124.575Z" fill="white"/>
<path d="M45.9707 119.476H14.5984V123.658H45.9707V119.476Z" fill="#263238"/>
<path opacity="0.8" d="M45.9707 119.476H14.5984V123.658H45.9707V119.476Z" fill="white"/>
<path opacity="0.5" d="M45.5277 120.362H14.5984V120.664H45.5277V120.362Z" fill="white"/>
<path opacity="0.5" d="M45.5277 122.095H14.5984V122.396H45.5277V122.095Z" fill="white"/>
<path d="M13.5971 118.337V119.392C13.5965 119.413 13.6003 119.435 13.6083 119.455C13.6164 119.475 13.6284 119.494 13.6438 119.509C13.6591 119.524 13.6774 119.536 13.6976 119.544C13.7178 119.552 13.7393 119.556 13.761 119.556H44.6992C44.7427 119.556 44.7844 119.573 44.8151 119.604C44.8458 119.634 44.8631 119.676 44.8631 119.72V122.852C44.8631 122.969 44.8164 123.082 44.7334 123.165C44.6503 123.248 44.5376 123.295 44.4201 123.295H13.761C13.7397 123.294 13.7185 123.298 13.6986 123.306C13.6788 123.314 13.6607 123.325 13.6454 123.34C13.6301 123.355 13.618 123.373 13.6097 123.392C13.6014 123.412 13.5971 123.433 13.5971 123.454V124.42C13.5971 124.442 13.6014 124.463 13.6097 124.482C13.618 124.502 13.6301 124.52 13.6454 124.535C13.6607 124.55 13.6788 124.561 13.6986 124.569C13.7185 124.577 13.7397 124.58 13.761 124.58H45.8467C46.0558 124.58 46.2564 124.497 46.4043 124.349C46.5522 124.201 46.6353 124 46.6353 123.791V118.342C46.6353 118.299 46.6187 118.258 46.5889 118.227C46.5591 118.197 46.5185 118.179 46.4758 118.178H13.761C13.7183 118.178 13.6773 118.194 13.6467 118.224C13.616 118.254 13.5983 118.295 13.5971 118.337Z" fill="#FF5050"/>
<path d="M129.419 135.988C130.03 134.733 130.643 133.48 131.258 132.231C129.331 131.404 127.293 130.864 125.21 130.627L125.152 132.567L126.038 132.944L125.719 135.226H127.607L129.419 135.988Z" fill="#263238"/>
<path d="M125.152 132.567L125.892 133.857C125.932 133.555 125.976 133.25 126.016 132.944L125.152 132.567Z" fill="#263238"/>
<path d="M125.698 135.226L129.007 138.974L129.419 135.988L127.585 135.243L125.698 135.226Z" fill="#263238"/>
<path d="M129.007 138.97L130.974 138.495L129.419 135.983L129.007 138.97Z" fill="#263238"/>
<path d="M131.258 132.231L134.292 133.919L132.237 136.826L129.419 135.988C130.03 134.727 130.643 133.475 131.258 132.231Z" fill="#263238"/>
<path d="M129.007 138.97L130.478 140.596L131.887 141.013C131.581 140.171 131.28 139.333 130.974 138.496L129.007 138.97Z" fill="#263238"/>
<path d="M131.887 141.017L132.587 140.131L131.829 138.084L130.974 138.527C131.28 139.338 131.581 140.175 131.887 141.017Z" fill="#263238"/>
<path d="M131.829 138.084L129.419 135.997L130.974 138.509L131.829 138.084Z" fill="#263238"/>
<path d="M132.237 136.826C132.569 137.574 132.897 138.328 133.225 139.076L131.829 138.084L129.419 135.997L132.237 136.826Z" fill="#263238"/>
<path d="M133.225 139.076L136.574 137.791L135.369 134.814L135.542 133.352L134.293 133.919L132.237 136.825C132.569 137.574 132.897 138.327 133.225 139.076Z" fill="#263238"/>
<path d="M128.232 131.194L129.561 130.175L131.594 129.223L133.597 131.721L131.244 132.231C130.832 132.054 130.389 131.881 129.915 131.713C129.327 131.506 128.766 131.333 128.232 131.194Z" fill="#263238"/>
<path d="M133.61 131.722L135.542 133.352L134.275 133.924L131.258 132.231L133.61 131.722Z" fill="#263238"/>
<path d="M132.587 140.149L135.006 141.699C134.82 141.123 134.638 140.543 134.456 139.967L131.829 138.084L132.587 140.149Z" fill="#263238"/>
<path d="M135.006 141.699L136.402 138.801L136.574 137.791L133.225 139.076L134.457 139.962C134.638 140.542 134.82 141.123 135.006 141.699Z" fill="#263238"/>
<path d="M125.698 135.226L124.887 135.593L125.985 136.643L127.811 141.264L129.007 138.974L125.698 135.226Z" fill="#263238"/>
<path d="M127.811 141.265L129.486 141.734L131.887 141.017L130.478 140.6L129.007 138.97L127.811 141.265Z" fill="#263238"/>
<path d="M124.891 135.594C124.636 135.978 124.432 136.393 124.284 136.83C124.115 137.33 124.018 137.853 123.996 138.381L127.151 139.563C126.765 138.589 126.375 137.618 125.99 136.644L124.891 135.594Z" fill="#263238"/>
<path opacity="0.9" d="M129.419 135.988C130.03 134.733 130.643 133.48 131.258 132.231C129.331 131.404 127.293 130.864 125.21 130.627L125.152 132.567L126.038 132.944L125.719 135.226H127.607L129.419 135.988Z" fill="white"/>
<path opacity="0.8" d="M125.152 132.567L125.892 133.857C125.932 133.555 125.976 133.25 126.016 132.944L125.152 132.567Z" fill="white"/>
<path opacity="0.8" d="M125.698 135.226L129.007 138.974L129.419 135.988L127.585 135.243L125.698 135.226Z" fill="white"/>
<path opacity="0.9" d="M129.007 138.97L130.974 138.495L129.419 135.983L129.007 138.97Z" fill="white"/>
<path opacity="0.8" d="M131.258 132.231L134.292 133.919L132.237 136.826L129.419 135.988C130.03 134.727 130.643 133.475 131.258 132.231Z" fill="white"/>
<path opacity="0.7" d="M129.007 138.97L130.478 140.596L131.887 141.013C131.581 140.171 131.28 139.333 130.974 138.496L129.007 138.97Z" fill="white"/>
<path opacity="0.5" d="M131.887 141.017L132.587 140.131L131.829 138.084L130.974 138.527C131.28 139.338 131.581 140.175 131.887 141.017Z" fill="white"/>
<path opacity="0.5" d="M131.829 138.084L129.419 135.997L130.974 138.509L131.829 138.084Z" fill="white"/>
<path opacity="0.9" d="M132.237 136.826C132.569 137.574 132.897 138.328 133.225 139.076L131.829 138.084L129.419 135.997L132.237 136.826Z" fill="white"/>
<path opacity="0.8" d="M133.225 139.076L136.574 137.791L135.369 134.814L135.542 133.352L134.293 133.919L132.237 136.825C132.569 137.574 132.897 138.327 133.225 139.076Z" fill="white"/>
<path d="M128.232 131.194L129.561 130.175L131.594 129.223L133.597 131.721L131.244 132.231C130.832 132.054 130.389 131.881 129.915 131.713C129.327 131.506 128.766 131.333 128.232 131.194Z" fill="white"/>
<path opacity="0.9" d="M133.61 131.722L135.542 133.352L134.275 133.924L131.258 132.231L133.61 131.722Z" fill="white"/>
<path opacity="0.9" d="M132.587 140.149L135.006 141.699C134.82 141.123 134.638 140.543 134.456 139.967L131.829 138.084L132.587 140.149Z" fill="white"/>
<path opacity="0.8" d="M135.006 141.699L136.402 138.801L136.574 137.791L133.225 139.076L134.457 139.962C134.638 140.542 134.82 141.123 135.006 141.699Z" fill="white"/>
<path opacity="0.7" d="M125.698 135.226L124.887 135.593L125.985 136.643L127.811 141.264L129.007 138.974L125.698 135.226Z" fill="white"/>
<path opacity="0.5" d="M127.811 141.265L129.486 141.734L131.887 141.017L130.478 140.6L129.007 138.97L127.811 141.265Z" fill="white"/>
<path opacity="0.9" d="M124.891 135.594C124.636 135.978 124.432 136.393 124.284 136.83C124.115 137.33 124.018 137.853 123.996 138.381L127.151 139.563C126.765 138.589 126.375 137.618 125.99 136.644L124.891 135.594Z" fill="white"/>
<path d="M153.366 135.027L156.653 137.614C157.367 136.606 157.994 135.539 158.527 134.425C158.893 133.648 159.214 132.85 159.489 132.036L157.606 131.593C157.42 131.85 157.238 132.107 157.052 132.36L154.894 131.571C154.752 132.183 154.615 132.799 154.478 133.41L153.366 135.027Z" fill="#263238"/>
<path d="M157.606 131.575L156.188 132.018L157.052 132.333C157.234 132.089 157.42 131.832 157.606 131.575Z" fill="#263238"/>
<path d="M154.894 131.553L150.53 133.998L153.366 135.026L154.478 133.391C154.615 132.767 154.753 132.164 154.894 131.553Z" fill="#263238"/>
<path d="M150.53 133.999L150.583 136.024L153.366 135.027L150.53 133.999Z" fill="#263238"/>
<path d="M156.653 137.614L154.363 140.228L151.957 137.609L153.366 135.026L156.653 137.614Z" fill="#263238"/>
<path d="M150.53 133.999L148.634 135.098C148.399 135.541 148.164 135.957 147.934 136.387L150.592 136.024L150.53 133.999Z" fill="#263238"/>
<path d="M147.93 136.387L148.63 137.273L150.814 136.967C150.734 136.657 150.659 136.347 150.579 136.041L147.93 136.387Z" fill="#263238"/>
<path d="M150.818 136.949L153.366 135.026L150.588 136.023C150.663 136.311 150.739 136.639 150.818 136.949Z" fill="#263238"/>
<path d="M151.957 137.609L149.547 138.106L150.818 136.949L153.366 135.026L151.957 137.609Z" fill="#263238"/>
<path d="M149.547 138.105C149.733 139.284 149.915 140.467 150.101 141.65L153.264 141.096L154.655 141.575L154.363 140.245L151.957 137.627L149.547 138.105Z" fill="#263238"/>
<path d="M158.302 134.876L159.006 136.4L159.511 138.589L156.649 140.024C156.649 139.222 156.649 138.416 156.649 137.614C156.909 137.251 157.17 136.856 157.433 136.431C157.765 135.891 158.053 135.368 158.302 134.876Z" fill="#263238"/>
<path d="M156.658 140.024L154.655 141.571L154.363 140.211L156.653 137.614C156.653 138.416 156.653 139.223 156.658 140.024Z" fill="#263238"/>
<path d="M148.634 137.255L146.609 139.293L148.417 139.116L150.818 136.949L148.634 137.255Z" fill="#263238"/>
<path d="M146.601 139.293L149.139 141.269L150.092 141.646C149.906 140.467 149.724 139.285 149.538 138.102L148.408 139.112L146.601 139.293Z" fill="#263238"/>
<path d="M154.894 131.553C154.828 131.261 154.766 130.968 154.704 130.667L153.446 131.518L148.541 132.333L150.53 133.985L154.894 131.553Z" fill="#263238"/>
<path d="M148.541 132.346L147.735 133.888L147.934 136.386C148.164 135.943 148.399 135.527 148.634 135.097L150.53 133.998L148.541 132.346Z" fill="#263238"/>
<path d="M154.704 130.68C154.005 129.974 153.127 129.471 152.165 129.223L150.344 132.058L153.446 131.531L154.704 130.68Z" fill="#263238"/>
<path opacity="0.9" d="M153.366 135.027L156.653 137.614C157.367 136.606 157.994 135.539 158.527 134.425C158.893 133.648 159.214 132.85 159.489 132.036L157.606 131.593C157.42 131.85 157.238 132.107 157.052 132.36L154.894 131.571C154.752 132.183 154.615 132.799 154.478 133.41L153.366 135.027Z" fill="white"/>
<path opacity="0.9" d="M157.606 131.575L156.188 132.018L157.052 132.333C157.234 132.089 157.42 131.832 157.606 131.575Z" fill="white"/>
<path opacity="0.8" d="M154.894 131.553L150.53 133.998L153.366 135.026L154.478 133.391C154.615 132.767 154.753 132.164 154.894 131.553Z" fill="white"/>
<path opacity="0.8" d="M150.53 133.999L150.583 136.024L153.366 135.027L150.53 133.999Z" fill="white"/>
<path opacity="0.8" d="M156.653 137.614L154.363 140.228L151.957 137.609L153.366 135.026L156.653 137.614Z" fill="white"/>
<path opacity="0.7" d="M150.53 133.999L148.634 135.098C148.399 135.541 148.164 135.957 147.934 136.387L150.592 136.024L150.53 133.999Z" fill="white"/>
<path opacity="0.5" d="M147.93 136.387L148.63 137.273L150.814 136.967C150.734 136.657 150.659 136.347 150.579 136.041L147.93 136.387Z" fill="white"/>
<path opacity="0.5" d="M150.818 136.949L153.366 135.026L150.588 136.023C150.663 136.311 150.739 136.639 150.818 136.949Z" fill="white"/>
<path opacity="0.9" d="M151.957 137.609L149.547 138.106L150.818 136.949L153.366 135.026L151.957 137.609Z" fill="white"/>
<path opacity="0.7" d="M149.547 138.105C149.733 139.284 149.915 140.467 150.101 141.65L153.264 141.096L154.655 141.575L154.363 140.245L151.957 137.627L149.547 138.105Z" fill="white"/>
<path opacity="0.7" d="M158.302 134.876L159.006 136.4L159.511 138.589L156.649 140.024C156.649 139.222 156.649 138.416 156.649 137.614C156.909 137.251 157.17 136.856 157.433 136.431C157.765 135.891 158.053 135.368 158.302 134.876Z" fill="white"/>
<path opacity="0.5" d="M156.658 140.024L154.655 141.571L154.363 140.211C155.129 139.347 155.891 138.478 156.653 137.614C156.653 138.416 156.653 139.223 156.658 140.024Z" fill="white"/>
<path opacity="0.9" d="M148.634 137.255L146.609 139.293L148.417 139.116L150.818 136.949L148.634 137.255Z" fill="white"/>
<path opacity="0.7" d="M146.601 139.293L149.139 141.269L150.092 141.646C149.906 140.467 149.724 139.285 149.538 138.102L148.408 139.112L146.601 139.293Z" fill="white"/>
<path opacity="0.9" d="M154.894 131.553C154.828 131.261 154.766 130.968 154.704 130.667L153.446 131.518L148.541 132.333L150.53 133.985L154.894 131.553Z" fill="white"/>
<path opacity="0.9" d="M148.541 132.346L147.735 133.888L147.934 136.386C148.164 135.943 148.399 135.527 148.634 135.097L150.53 133.998L148.541 132.346Z" fill="white"/>
<path d="M154.704 130.68C154.005 129.974 153.127 129.471 152.165 129.223L150.344 132.058L153.446 131.531L154.704 130.68Z" fill="white"/>
<path d="M78.814 141.589H98.4987C98.5361 141.589 98.573 141.58 98.6066 141.563C98.6402 141.547 98.6697 141.523 98.693 141.494C98.7163 141.465 98.7329 141.431 98.7414 141.394C98.75 141.358 98.7503 141.32 98.7424 141.283C98.5416 140.362 98.3392 139.443 98.1354 138.528C98.1234 138.472 98.0927 138.421 98.0485 138.385C98.0042 138.349 97.949 138.329 97.8918 138.328H76.8469C76.8003 138.329 76.7547 138.342 76.715 138.366C76.6753 138.391 76.6431 138.426 76.6217 138.467C76.6003 138.509 76.5906 138.555 76.5935 138.602C76.5965 138.648 76.6121 138.693 76.6387 138.731L78.6102 141.483C78.6334 141.515 78.6639 141.542 78.6993 141.56C78.7348 141.579 78.7741 141.589 78.814 141.589Z" fill="#FF5050"/>
<path opacity="0.2" d="M78.814 141.589H98.5031C98.5402 141.589 98.5769 141.581 98.6104 141.565C98.6439 141.549 98.6733 141.526 98.6964 141.497C98.7195 141.468 98.7356 141.434 98.7436 141.398C98.7516 141.361 98.7511 141.324 98.7424 141.288C98.5386 140.362 98.3303 139.44 98.1221 138.514C98.1085 138.46 98.0773 138.411 98.0332 138.376C97.9892 138.34 97.9348 138.321 97.8784 138.319H76.8203C76.7746 138.32 76.7298 138.332 76.6909 138.356C76.652 138.38 76.6206 138.415 76.5999 138.455C76.5793 138.496 76.5704 138.542 76.5741 138.588C76.5778 138.633 76.594 138.677 76.6209 138.714L78.5969 141.478C78.6205 141.514 78.6529 141.543 78.6909 141.562C78.7289 141.582 78.7713 141.591 78.814 141.589Z" fill="black"/>
<path d="M70.0594 107.917H32.9628C32.7666 107.917 32.573 107.961 32.3957 108.046L30.7875 108.816C33.8357 119.745 36.8853 130.663 39.9365 141.571L77.0817 141.669L79.1641 141.589C76.2842 130.513 73.5373 119.436 70.6619 108.36C70.6234 108.231 70.5437 108.118 70.435 108.038C70.3262 107.958 70.1944 107.915 70.0594 107.917Z" fill="#FF5050"/>
<path opacity="0.2" d="M77.0817 141.669L39.9365 141.571C36.8853 130.643 33.8357 119.724 30.7875 108.816H68.6638L77.0817 141.669Z" fill="black"/>
<path opacity="0.2" d="M32.2939 108.099L30.7964 108.817H68.6727L70.1791 108.094C70.1986 108.085 70.2144 108.07 70.2237 108.05C70.233 108.031 70.2352 108.008 70.23 107.987C70.2247 107.967 70.2124 107.948 70.195 107.935C70.1776 107.922 70.1563 107.916 70.1348 107.917H33.0958C32.8183 107.917 32.5442 107.979 32.2939 108.099Z" fill="white"/>
<path d="M55.7754 123.907C55.8458 124.657 55.692 125.412 55.3336 126.075C54.9752 126.738 54.4281 127.28 53.7617 127.632C53.0953 127.984 52.3395 128.13 51.5898 128.053C50.8401 127.975 50.1302 127.677 49.55 127.196C48.9698 126.715 48.5453 126.073 48.3301 125.35C48.115 124.628 48.1189 123.858 48.3414 123.138C48.5639 122.418 48.995 121.78 49.5801 121.305C50.1652 120.83 50.8781 120.539 51.6285 120.469C52.1266 120.422 52.6291 120.474 53.1072 120.621C53.5853 120.769 54.0297 121.009 54.4149 121.328C54.8 121.647 55.1185 122.04 55.3519 122.482C55.5854 122.925 55.7293 123.409 55.7754 123.907Z" fill="#FF5050"/>
<path opacity="0.4" d="M70.6575 108.365L79.1641 141.594L77.0818 141.673L68.6638 108.821L70.1259 108.121C70.1762 108.097 70.2312 108.084 70.287 108.084C70.3428 108.084 70.398 108.095 70.4487 108.119C70.4994 108.142 70.5444 108.176 70.5805 108.219C70.6166 108.261 70.6429 108.311 70.6575 108.365Z" fill="black"/>
</svg>
