<svg width="183" height="66" viewBox="0 0 183 66" fill="none" xmlns="http://www.w3.org/2000/svg">
<path d="M3.85972 53V8.59151H13.2488V26.9144H32.3089V8.59151H41.6763V53H32.3089V34.6555H13.2488V53H3.85972ZM60.3886 53.6288C58.2636 53.6288 56.3699 53.2602 54.7075 52.523C53.0451 51.7712 51.7296 50.6654 50.761 49.2053C49.8069 47.7308 49.3299 45.8949 49.3299 43.6976C49.3299 41.8473 49.6696 40.2933 50.349 39.0356C51.0285 37.778 51.9536 36.766 53.1246 35.9999C54.2955 35.2337 55.6254 34.6555 57.1144 34.2652C58.6178 33.8749 60.1935 33.6002 61.8415 33.4412C63.7786 33.2388 65.3398 33.0509 66.5252 32.8774C67.7106 32.6895 68.5707 32.4148 69.1055 32.0534C69.6404 31.692 69.9079 31.1572 69.9079 30.4488V30.3187C69.9079 28.9454 69.4742 27.8829 68.6068 27.1312C67.7539 26.3795 66.5396 26.0036 64.9639 26.0036C63.3015 26.0036 61.9788 26.3723 60.9958 27.1095C60.0128 27.8323 59.3623 28.743 59.0443 29.8417L50.5008 29.1478C50.9345 27.124 51.7874 25.3748 53.0595 23.9003C54.3316 22.4113 55.9724 21.2693 57.9817 20.4743C60.0056 19.6647 62.3474 19.26 65.0073 19.26C66.8577 19.26 68.6285 19.4768 70.3198 19.9105C72.0256 20.3441 73.5363 21.0163 74.8518 21.9271C76.1817 22.8378 77.2298 24.0087 77.9959 25.4399C78.7621 26.8565 79.1452 28.5551 79.1452 30.5355V53H70.3849V48.3813H70.1247C69.5898 49.4222 68.8743 50.3401 67.978 51.1352C67.0817 51.9158 66.0048 52.5302 64.7471 52.9783C63.4894 53.412 62.0366 53.6288 60.3886 53.6288ZM63.0341 47.2538C64.3929 47.2538 65.5928 46.9864 66.6336 46.4515C67.6744 45.9022 68.4912 45.1649 69.0839 44.2397C69.6766 43.3146 69.9729 42.2665 69.9729 41.0956V37.5611C69.6838 37.749 69.2862 37.9225 68.7803 38.0815C68.2888 38.2261 67.7322 38.3634 67.1106 38.4935C66.489 38.6092 65.8674 38.7176 65.2458 38.8188C64.6242 38.9055 64.0604 38.985 63.5545 39.0573C62.4703 39.2163 61.5234 39.4693 60.7139 39.8162C59.9044 40.1632 59.2755 40.633 58.8274 41.2257C58.3793 41.8039 58.1552 42.5267 58.1552 43.3941C58.1552 44.6517 58.6106 45.613 59.5213 46.278C60.4465 46.9285 61.6174 47.2538 63.0341 47.2538ZM113.394 53V60.0039H84.2292V53H113.394ZM124.609 19.6936H133.846V54.648C133.846 57.2211 133.34 59.3028 132.329 60.8929C131.317 62.4831 129.864 63.6468 127.97 64.384C126.091 65.1213 123.843 65.4899 121.226 65.4899C120.908 65.4899 120.605 65.4827 120.316 65.4682C120.012 65.4682 119.694 65.461 119.362 65.4465V58.2258C119.607 58.2403 119.824 58.2475 120.012 58.2475C120.186 58.2619 120.374 58.2692 120.576 58.2692C122.065 58.2692 123.106 57.9511 123.698 57.3151C124.306 56.6935 124.609 55.7538 124.609 54.4962V19.6936ZM129.206 15.4002C127.847 15.4002 126.676 14.9449 125.693 14.0342C124.71 13.109 124.219 12.0031 124.219 10.7165C124.219 9.44441 124.71 8.35299 125.693 7.44227C126.676 6.51709 127.847 6.0545 129.206 6.0545C130.594 6.0545 131.772 6.51709 132.741 7.44227C133.724 8.35299 134.215 9.44441 134.215 10.7165C134.215 12.0031 133.724 13.109 132.741 14.0342C131.772 14.9449 130.594 15.4002 129.206 15.4002ZM142.893 53V19.6936H152.13V53H142.893ZM147.534 15.4002C146.16 15.4002 144.982 14.9449 143.999 14.0342C143.031 13.109 142.546 12.0031 142.546 10.7165C142.546 9.44441 143.031 8.35299 143.999 7.44227C144.982 6.51709 146.16 6.0545 147.534 6.0545C148.907 6.0545 150.078 6.51709 151.046 7.44227C152.029 8.35299 152.521 9.44441 152.521 10.7165C152.521 12.0031 152.029 13.109 151.046 14.0342C150.078 14.9449 148.907 15.4002 147.534 15.4002ZM161.177 53V19.6936H170.133V25.5049H170.48C171.087 23.4377 172.106 21.8765 173.537 20.8212C174.968 19.7515 176.616 19.2166 178.481 19.2166C178.944 19.2166 179.442 19.2455 179.977 19.3033C180.512 19.3611 180.982 19.4407 181.387 19.5418V27.7383C180.953 27.6082 180.353 27.4926 179.587 27.3914C178.821 27.2902 178.12 27.2396 177.483 27.2396C176.125 27.2396 174.91 27.536 173.841 28.1286C172.785 28.7069 171.947 29.5164 171.325 30.5572C170.718 31.5981 170.415 32.7979 170.415 34.1568V53H161.177Z" fill="white"/>
<path fill-rule="evenodd" clip-rule="evenodd" d="M85.0629 30.8231C85.4164 30.4052 86.0417 30.3531 86.4595 30.7067L96.8125 39.4669C97.3739 39.076 98.0563 38.8468 98.7922 38.8468C100.708 38.8468 102.261 40.3997 102.261 42.3153C102.261 44.2309 100.708 45.7837 98.7922 45.7837C96.8766 45.7837 95.3237 44.2309 95.3237 42.3153C95.3237 41.8559 95.413 41.4175 95.5752 41.0162L85.1793 32.2197C84.7614 31.8662 84.7093 31.2409 85.0629 30.8231ZM112.68 35.5172C113.451 35.0295 113.68 34.0092 113.192 33.2383C112.705 32.4675 111.684 32.238 110.914 32.7257L103.615 37.3432C104.53 38.268 104.947 38.8573 105.381 40.1347L112.68 35.5172Z" fill="#FF5050"/>
</svg>
